<?xml version="1.0" encoding="UTF-8"?>
<svg width="20px" height="20px" viewBox="0 0 20 20" version="1.1" xmlns="http://www.w3.org/2000/svg" xmlns:xlink="http://www.w3.org/1999/xlink">
    <title>社区</title>
    <g id="页面-1" stroke="none" stroke-width="1" fill-rule="evenodd">
        <g id="自定义案例-帮助中心" transform="translate(-146.000000, -123.000000)" fill-rule="nonzero">
            <g id="社区" transform="translate(146.000000, 123.000000)">
                <rect id="矩形" opacity="0" x="0" y="0" width="20" height="20"></rect>
                <path d="M10,1.66666666 C14.6022917,1.66666666 18.3333333,5.39770832 18.3333333,10 C18.3333333,14.6022917 14.6022917,18.3333333 10,18.3333333 C5.39770834,18.3333333 1.66666666,14.6022917 1.66666666,10 C1.66666666,5.39770834 5.39770834,1.66666666 10,1.66666666 Z M12.8004167,11.3889583 C12.2726887,12.452783 11.1875266,13.1254995 10,13.125 C8.81276322,13.1254589 7.72783665,12.4530305 7.2,11.3895833 C7.10253832,11.1863179 6.90316982,11.0512854 6.67825181,11.0362026 C6.45333379,11.0211198 6.23772111,11.1283241 6.11399252,11.3167567 C5.99026393,11.5051893 5.97759326,11.7456493 6.08083334,11.9460417 C6.81983895,13.4343625 8.33830567,14.3754535 10,14.3750002 C11.6619841,14.375494 13.1806863,13.434115 13.9195833,11.9454167 C14.0673131,11.6373133 13.9402325,11.2676812 13.6342751,11.1155568 C13.3283176,10.9634324 12.9569045,11.0852095 12.8004167,11.3889583 L12.8004167,11.3889583 Z" id="形状"></path>
            </g>
        </g>
    </g>
</svg>