<?xml version="1.0" encoding="UTF-8"?>
<svg width="20px" height="20px" viewBox="0 0 20 20" version="1.1" xmlns="http://www.w3.org/2000/svg" xmlns:xlink="http://www.w3.org/1999/xlink">
    <title>帮助与支持</title>
    <g id="页面-1" stroke="none" stroke-width="1" fill-rule="evenodd">
        <g id="自定义案例-帮助中心" transform="translate(-146.000000, -203.000000)" fill-rule="nonzero">
            <g id="帮助与支持" transform="translate(146.000000, 203.000000)">
                <rect id="矩形" opacity="0" x="0" y="0" width="20" height="20"></rect>
                <path d="M15.09375,1.56445312 L4.90625,1.56445312 C2.90625,1.56445312 1.26953125,3.20117187 1.26953125,5.203125 L1.26953125,12.4785156 C1.26953125,14.4785156 2.90625,16.1152344 4.90625,16.1152344 L8.17382812,16.1152344 L10,18.4355469 L11.8261719,16.1171875 L15.09375,16.1171875 C17.09375,16.1171875 18.7304688,14.4804687 18.7304688,12.4804688 L18.7304688,5.203125 C18.7304688,3.20117187 17.09375,1.56445312 15.09375,1.56445312 Z M10.5488281,13.2519531 L9.15039062,13.2519531 L9.15039062,11.8945313 L10.5488281,11.8945313 L10.5488281,13.2519531 Z M11.3535156,9.01367187 C10.703125,9.4375 10.3925781,9.9453125 10.421875,10.5390625 L10.421875,10.8789062 L9.27734375,10.8789062 L9.27734375,10.4550781 C9.24804688,9.63671875 9.6171875,8.97265625 10.3789062,8.46289062 C11.1699219,7.8984375 11.5507812,7.33398437 11.5234375,6.76757812 C11.4394531,5.9765625 10.9863281,5.55273437 10.1679688,5.49609375 C9.1796875,5.49609375 8.55664062,6.06054687 8.30273438,7.19140625 L7.07421875,6.89453125 C7.4140625,5.171875 8.5,4.3515625 10.3378906,4.43554687 C11.890625,4.51953125 12.7539062,5.25585938 12.9238281,6.63867187 C12.9785156,7.54492187 12.4570312,8.33398437 11.3535156,9.01367187 L11.3535156,9.01367187 Z" id="形状"></path>
            </g>
        </g>
    </g>
</svg>