<?xml version="1.0" encoding="UTF-8"?>
<svg width="20px" height="20px" viewBox="0 0 20 20" version="1.1" xmlns="http://www.w3.org/2000/svg" xmlns:xlink="http://www.w3.org/1999/xlink">
    <title>项目建立</title>
    <g id="页面-1" stroke="none" stroke-width="1" fill-rule="evenodd">
        <g id="自定义案例-帮助中心" transform="translate(-145.000000, -243.000000)" fill-rule="nonzero">
            <g id="项目建立" transform="translate(145.000000, 243.000000)">
                <rect id="矩形" opacity="0" x="0" y="0" width="20" height="20"></rect>
                <path d="M16.5516016,18.7597656 L3.42886719,18.7597656 C2.73789063,18.7597656 2.17773438,18.1996094 2.17773438,17.5086328 L2.17773438,3.75976562 L2.17773438,3.75976562 L2.18125,1.93648438 C2.18203125,1.53568359 2.75619141,1.25976562 3.43228516,1.25976562 L7.80632812,1.25976562 C8.15142578,1.25976562 8.5534375,1.40095703 8.71099609,1.58292969 L10.4077344,3.54257812 C10.5271518,3.68049978 10.7005913,3.75974672 10.8830273,3.75974609 L16.551582,3.75974609 C17.2425586,3.75974609 17.8027148,4.31990234 17.8027148,5.01087891 L17.8027148,17.5086328 C17.8027148,18.1996094 17.2425781,18.7597656 16.5516016,18.7597656 Z M5.61523438,14.3847656 C5.96041016,14.3847656 6.24023438,14.1049414 6.24023438,13.7597656 C6.24023438,13.4145898 5.96041016,13.1347656 5.61523438,13.1347656 C5.27005859,13.1347656 4.99023438,13.4145898 4.99023438,13.7597656 C4.99023438,14.1049414 5.27005859,14.3847656 5.61523438,14.3847656 Z M5.61523438,11.8847656 C5.96041016,11.8847656 6.24023438,11.6049414 6.24023438,11.2597656 C6.24023438,10.9145898 5.96041016,10.6347656 5.61523438,10.6347656 C5.27005859,10.6347656 4.99023438,10.9145898 4.99023438,11.2597656 C4.99023438,11.6049414 5.27005859,11.8847656 5.61523438,11.8847656 Z M5.61523438,9.38476562 C5.96041016,9.38476562 6.24023438,9.10494141 6.24023438,8.75976562 C6.24023438,8.41458984 5.96041016,8.13476562 5.61523438,8.13476562 C5.27005859,8.13476562 4.99023438,8.41458984 4.99023438,8.75976562 C4.99023438,9.10494141 5.27005859,9.38476562 5.61523438,9.38476562 Z M14.3652344,8.13476562 L8.12931641,8.13476562 C7.78816406,8.13476562 7.49923828,8.40222656 7.49044922,8.74326172 C7.48136719,9.09597656 7.76457031,9.38476562 8.11523438,9.38476562 L14.3511523,9.38476562 C14.6923047,9.38476562 14.9812305,9.11730469 14.9900195,8.77626953 C14.9991016,8.42355469 14.7158984,8.13476562 14.3652344,8.13476562 Z M14.3652344,10.6347656 L8.12931641,10.6347656 C7.78816406,10.6347656 7.49923828,10.9022266 7.49044922,11.2432617 C7.48136719,11.5959766 7.76457031,11.8847656 8.11523438,11.8847656 L14.3511523,11.8847656 C14.6923047,11.8847656 14.9812305,11.6173047 14.9900195,11.2762695 C14.9991016,10.9235547 14.7158984,10.6347656 14.3652344,10.6347656 Z M14.3652344,13.1347656 L8.12931641,13.1347656 C7.78816406,13.1347656 7.49923828,13.4022266 7.49044922,13.7432617 C7.48136719,14.0959766 7.76457031,14.3847656 8.11523438,14.3847656 L14.3511523,14.3847656 C14.6923047,14.3847656 14.9812305,14.1173047 14.9900195,13.7762695 C14.9991016,13.4235547 14.7158984,13.1347656 14.3652344,13.1347656 Z" id="形状"></path>
            </g>
        </g>
    </g>
</svg>