<?xml version="1.0" encoding="UTF-8"?>
<svg width="20px" height="19px" viewBox="0 0 20 19" version="1.1" xmlns="http://www.w3.org/2000/svg" xmlns:xlink="http://www.w3.org/1999/xlink">
    <title>形状</title>
    <g id="页面-1" stroke="none" stroke-width="1" fill-rule="evenodd">
        <g id="自定义案例-帮助中心" transform="translate(-147.000000, -163.000000)" fill-rule="nonzero">
            <path d="M164.970304,166.887754 L163.112246,166.887754 L163.112246,165.024247 C163.112246,163.907233 162.205013,163 161.08255,163 L149.029696,163 C147.909958,163 147,163.904509 147,165.024247 L147,179.861463 C147,180.978477 147.907233,181.88571 149.029696,181.88571 L164.027653,181.88571 L164.027653,181.888435 L164.975753,181.888435 C166.092767,181.888435 167,180.983926 167,179.864187 L167,168.91745 C167,167.797711 166.092767,166.887754 164.970304,166.887754 Z M159.265359,174.780411 L150.846887,174.780411 C150.563547,174.780411 150.334696,174.55156 150.334696,174.26822 L150.334696,174.181038 C150.334696,173.897698 150.563547,173.668846 150.846887,173.668846 L159.265359,173.668846 C159.548699,173.668846 159.777551,173.897698 159.777551,174.181038 L159.777551,174.26822 C159.777551,174.55156 159.548699,174.780411 159.265359,174.780411 Z M159.777551,177.504836 L159.777551,177.608364 C159.777551,177.886255 159.551424,178.112383 159.273532,178.112383 L150.838714,178.112383 C150.560823,178.112383 150.334696,177.886255 150.334696,177.608364 L150.334696,177.504836 C150.334696,177.226945 150.560823,177.000817 150.838714,177.000817 L159.273532,177.000817 C159.551424,177.000817 159.777551,177.226945 159.777551,177.504836 L159.777551,177.504836 Z M158.665986,171.107887 L151.446261,171.107887 C150.833265,171.107887 150.334696,170.609318 150.334696,169.996322 L150.334696,168.045634 C150.334696,167.432639 150.833265,166.934069 151.446261,166.934069 L158.665986,166.934069 C159.278981,166.934069 159.777551,167.432639 159.777551,168.045634 L159.777551,169.996322 C159.777551,170.609318 159.278981,171.107887 158.665986,171.107887 Z M165.888435,179.864187 C165.888435,180.368206 165.479771,180.77687 164.975753,180.77687 L164.782318,180.77687 L164.782318,180.774145 L164.030377,180.774145 C163.523634,180.774145 163.112246,180.365482 163.112246,179.861463 L163.112246,167.999319 L164.970304,167.999319 L164.970304,168.002043 C165.477047,168.002043 165.888435,168.413431 165.888435,168.920174 L165.888435,179.864187 L165.888435,179.864187 Z" id="形状"></path>
        </g>
    </g>
</svg>