<?xml version="1.0" encoding="UTF-8"?>
<svg width="20px" height="20px" viewBox="0 0 20 20" version="1.1" xmlns="http://www.w3.org/2000/svg" xmlns:xlink="http://www.w3.org/1999/xlink">
    <title>自定义</title>
    <g id="页面-1" stroke="none" stroke-width="1" fill-rule="evenodd">
        <g id="自定义案例-自定义社区" transform="translate(-147.000000, -123.000000)" fill-rule="nonzero">
            <g id="自定义" transform="translate(147.000000, 123.000000)">
                <rect id="矩形" opacity="0" x="0" y="0" width="20" height="20"></rect>
                <path d="M10,19.1666667 C4.9375,19.1666667 0.83333334,15.0625 0.83333334,10 C0.83333334,4.9375 4.9375,0.83333334 10,0.83333334 C15.0625,0.83333334 19.1666667,4.9375 19.1666667,10 C19.1666667,15.0625 15.0625,19.1666667 10,19.1666667 Z M10.7108333,13.6375 L12.2891667,14.5766667 C12.6791667,14.8091667 12.965,14.6291667 12.9225,14.1716667 L12.7441667,12.2566667 C12.7008333,11.7975 12.9191667,11.1575 13.2316667,10.8233333 L14.435,9.53416666 C14.75,9.19583332 14.6383333,8.85083332 14.1933333,8.75583334 L12.4733333,8.3875 C12.0233333,8.29083334 11.4933333,7.88083334 11.28,7.46916666 L10.3866667,5.74583334 C10.1725,5.33166668 9.82666666,5.33416668 9.61333334,5.74583334 L8.72,7.46916666 C8.50583334,7.8825 7.97166666,8.29166666 7.52666666,8.3875 L5.80666666,8.75583334 C5.35666666,8.8525 5.2525,9.19916668 5.565,9.53416666 L6.76833334,10.8233333 C7.08333334,11.1608333 7.29833334,11.7991667 7.25583334,12.2566667 L7.0775,14.1716667 C7.03416666,14.6308333 7.31833334,14.8108333 7.71083334,14.5766667 L9.28916666,13.6375 C9.67916666,13.405 10.3183333,13.4041667 10.7108333,13.6375 Z" id="形状"></path>
            </g>
        </g>
    </g>
</svg>