<?xml version="1.0" encoding="UTF-8"?>
<svg width="20px" height="20px" viewBox="0 0 20 20" version="1.1" xmlns="http://www.w3.org/2000/svg" xmlns:xlink="http://www.w3.org/1999/xlink">
    <title>自定义</title>
    <g id="页面-1" stroke="none" stroke-width="1" fill-rule="evenodd">
        <g id="自定义案例-自定义社区" transform="translate(-146.000000, -163.000000)" fill-rule="nonzero">
            <g id="自定义" transform="translate(146.000000, 163.000000)">
                <rect id="矩形" opacity="0" x="0" y="0" width="20" height="20"></rect>
                <path d="M7.02548828,10.683418 C7.89414063,10.683418 8.59833984,11.387168 8.59833984,12.255293 L8.59833984,16.1625195 C8.59833984,17.030625 7.89414063,17.734375 7.02548828,17.734375 L3.11582031,17.734375 C2.24716797,17.734375 1.54296875,17.030625 1.54296875,16.1625 L1.54296875,12.2552734 C1.54296875,11.387168 2.24716797,10.683418 3.11582031,10.683418 L7.02548828,10.683418 Z M15.6537109,10.683418 C16.5223633,10.683418 17.2265625,11.387168 17.2265625,12.255293 L17.2265625,16.1625195 C17.2265625,17.0306055 16.5223633,17.734375 15.6537109,17.734375 L11.744043,17.734375 C10.8753906,17.734375 10.1711914,17.030625 10.1711914,16.1625 L10.1711914,12.2552734 C10.1711914,11.387168 10.8753906,10.683418 11.744043,10.683418 L15.6537109,10.683418 Z M13.6988867,2.28515625 C15.647168,2.28515625 17.2265625,3.86357422 17.2265625,5.810625 C17.2265625,7.75769531 15.647168,9.33611328 13.6988867,9.33611328 C11.7505859,9.33611328 10.1711914,7.75769531 10.1711914,5.810625 C10.1711914,3.86355469 11.7505859,2.28515625 13.6988867,2.28515625 Z M7.02548828,2.28515625 C7.89414063,2.28515625 8.59833984,2.98890625 8.59833984,3.85703125 L8.59833984,7.76425781 C8.59833984,8.63236328 7.89414063,9.33611328 7.02548828,9.33611328 L3.11582031,9.33611328 C2.24716797,9.33611328 1.54296875,8.63236328 1.54296875,7.76423828 L1.54296875,3.85703125 C1.54296875,2.98892578 2.24716797,2.28515625 3.11582031,2.28515625 L7.02548828,2.28515625 Z" id="形状"></path>
            </g>
        </g>
    </g>
</svg>