<?xml version="1.0" encoding="UTF-8"?>
<svg width="20px" height="20px" viewBox="0 0 20 20" version="1.1" xmlns="http://www.w3.org/2000/svg" xmlns:xlink="http://www.w3.org/1999/xlink">
    <title>事件</title>
    <g id="页面-1" stroke="none" stroke-width="1" fill-rule="evenodd">
        <g id="自定义案例-自定义社区" transform="translate(-145.000000, -203.000000)" fill-rule="nonzero">
            <g id="事件" transform="translate(145.000000, 203.000000)">
                <rect id="矩形" opacity="0" x="0" y="0" width="20" height="20"></rect>
                <polygon id="路径" opacity="0.01" points="0 0 20 0 20 20 0 20"></polygon>
                <path d="M14.9703125,18.438125 L4.7321875,18.438125 C3.3275,18.438125 2.1875,17.5959375 2.1875,16.16375 L2.1875,4.495 C2.1875,3.06375 3.3453125,1.90375 4.7740625,1.9025 L4.7740625,1.9421875 C4.7746875,3.3515625 5.915,4.4934375 7.32125,4.4934375 L12.5746875,4.4934375 C13.9809375,4.4934375 15.12125,3.35125 15.1215625,1.9421875 L15.1215625,1.9025 L15.1384375,1.9025 C16.5696875,1.9025 17.4703125,2.9821875 17.4703125,4.414375 L17.4703125,15.938125 C17.4703125,17.3188369 16.3510244,18.438125 14.9703125,18.438125 Z M13.6378125,7.591875 L5.99625,7.591875 C5.6442905,7.59239242 5.35934206,7.87804029 5.35968719,8.23 C5.35934206,8.58195971 5.6442905,8.86760758 5.99625,8.868125 L13.6378125,8.868125 C13.806888,8.86795932 13.9689729,8.80063539 14.0884101,8.68096372 C14.2078474,8.56129205 14.2748533,8.39907554 14.2746878,8.23 C14.2748533,8.06092446 14.2078474,7.89870795 14.0884101,7.77903628 C13.9689729,7.65936461 13.806888,7.59204068 13.6378125,7.591875 L13.6378125,7.591875 Z M13.6378125,10.144375 L5.99625,10.144375 C5.6442905,10.1448924 5.35934206,10.4305403 5.35968719,10.7825 C5.35934206,11.1344597 5.6442905,11.4201076 5.99625,11.420625 L11.4503125,11.420625 C11.619388,11.4204593 11.7814729,11.3531354 11.9009101,11.2334637 C12.0203474,11.1137921 12.0873533,10.9515755 12.0871875,10.7825 C12.0873533,10.6134245 12.0203474,10.4512079 11.9009101,10.3315363 C11.7814729,10.2118646 11.619388,10.1445407 11.4503125,10.144375 L13.6378125,10.144375 L13.6378125,10.144375 Z M13.6378125,12.956875 L5.99625,12.956875 C5.6442905,12.9573924 5.35934206,13.2430403 5.35968719,13.595 C5.35934206,13.9469597 5.6442905,14.2326076 5.99625,14.233125 L9.8878125,14.233125 C10.056888,14.2329593 10.2189729,14.1656354 10.3384101,14.0459637 C10.4578474,13.9262921 10.5248533,13.7640755 10.5246875,13.595 C10.5248533,13.4259245 10.4578474,13.2637079 10.3384101,13.1440363 C10.2189729,13.0243646 10.056888,12.9570407 9.8878125,12.956875 L13.6378125,12.956875 L13.6378125,12.956875 Z M12.575,3.21718794 L7.3625,3.21718794 C7.02443834,3.21727071 6.70021718,3.08292751 6.46128874,2.84376461 C6.22236031,2.6046017 6.08833519,2.28024892 6.08874902,1.9421875 L6.08874902,1.9015625 C6.08788644,1.1975211 6.65783383,0.626034826 7.361875,0.625 L12.575,0.625 C13.2790411,0.625862457 13.8491283,1.19720871 13.8484381,1.90125 L13.8484381,1.941875 C13.8484381,2.280625 13.714375,2.605 13.475625,2.8440625 C13.2369474,3.08320585 12.9128705,3.21746952 12.575,3.21718794 L12.575,3.21718794 Z" id="形状"></path>
            </g>
        </g>
    </g>
</svg>