<?xml version="1.0" encoding="UTF-8"?>
<svg width="20px" height="20px" viewBox="0 0 20 20" version="1.1" xmlns="http://www.w3.org/2000/svg" xmlns:xlink="http://www.w3.org/1999/xlink">
    <title>营养科</title>
    <g id="页面-1" stroke="none" stroke-width="1">
        <g id="知识工具库-膳食营养-成分库" transform="translate(-145.000000, -163.000000)">
            <g id="营养科" transform="translate(145.000000, 163.000000)">
                <rect id="矩形" opacity="0" x="0" y="0" width="20" height="20"></rect>
                <path d="M13.1156,11.88 C12.7590362,11.8806625 12.4704591,12.1701344 12.4709,12.5266985 C12.4713419,12.8832626 12.760635,13.1720192 13.1171993,13.1717989 C13.4737636,13.1715784 13.7627,12.8824644 13.7627,12.5259 C13.7619831,12.1690081 13.4724926,11.8800544 13.1156,11.88 Z M17.7349,8.6119 C17.2915111,4.67494652 13.9617426,1.69913386 9.9999,1.69913386 C6.03805744,1.69913386 2.70828895,4.67494652 2.2649,8.6119 C1.92660061,8.7344235 1.70092595,9.05529779 1.7,9.4151 C1.70430254,12.2237385 3.1516121,14.8330881 5.532,16.3238 L5.532,17.2792 C5.53310288,17.8432176 5.99058136,18.3 6.5546,18.3 L13.4122,18.3 C13.9761406,18.2997805 14.4334973,17.8431395 14.4346,17.2792 L14.4346,16.3452 C16.8351379,14.8593718 18.2971121,12.2382648 18.3,9.4151 C18.2992113,9.05509968 18.0734157,8.73400713 17.7349,8.6115 L17.7349,8.6119 Z M12.949,5.31219974 C13.4908031,5.31308332 13.9293881,5.75286143 13.9288,6.29466493 C13.9282108,6.83646842 13.4886713,7.27529251 12.9468675,7.2749987 C12.4050638,7.27470459 11.966,6.83540382 11.966,6.2936 C11.9664968,5.75116876 12.4065687,5.31181323 12.949,5.31219974 L12.949,5.31219974 Z M10.25,6.54309981 C10.6172912,6.54370728 10.9146043,6.8418406 10.9142,7.20913212 C10.9137949,7.57642364 10.6158256,7.87390108 10.2485339,7.87369909 C9.88124225,7.8734969 9.5836,7.57569174 9.5836,7.2084 C9.58393123,6.84067261 9.88227256,6.54282374 10.25,6.54309981 Z M7.6925,4.34189985 C8.37209832,4.34278338 8.92238827,4.89426664 8.92180001,5.57386528 C8.92121081,6.25346392 8.36996619,6.80399292 7.69036736,6.80369896 C7.01076853,6.80340477 6.46,6.25239889 6.46,5.5728 C6.46055208,4.89259663 7.01229649,4.34156848 7.6925,4.34189985 L7.6925,4.34189985 Z M13.1156,14.4743 C12.0397521,14.472423 11.1689505,13.5990861 11.1702,12.5232373 C11.1714521,11.4473884 12.044282,10.5760787 13.1201314,10.576703 C14.1959807,10.5773279 15.0678,11.4496504 15.0678,12.5255 C15.0657045,13.6022508 14.1923528,14.4740815 13.1156,14.4743 L13.1156,14.4743 Z M16.0043,10.0043 L3.8958,10.0043 C3.66304146,10.0043 3.4479637,9.88012481 3.33158443,9.67855001 C3.21520515,9.4769752 3.21520515,9.2286248 3.33158443,9.02704999 C3.4479637,8.82547519 3.66304146,8.7013 3.8958,8.7013 L16.0043,8.7013 C16.3641964,8.7013 16.65595,8.99305364 16.65595,9.35295 C16.65595,9.71284636 16.3641964,10.0046 16.0043,10.0046 L16.0043,10.0043 Z" id="形状"></path>
            </g>
        </g>
    </g>
</svg>