<?xml version="1.0" encoding="UTF-8"?>
<svg width="20px" height="20px" viewBox="0 0 20 20" version="1.1" xmlns="http://www.w3.org/2000/svg" xmlns:xlink="http://www.w3.org/1999/xlink">
    <title>运动</title>
    <g id="页面-1" stroke="none" stroke-width="1">
        <g id="知识工具库-运动方案-运动处方" transform="translate(-145.000000, -203.000000)">
            <g id="运动" transform="translate(145.000000, 203.000000)">
                <rect id="矩形" opacity="0" x="0" y="0" width="20" height="20"></rect>
                <path d="M17.6,9.772 C16.7792,9.6708 15.948,9.4072 15.1072,8.9816 C14.266,8.556 13.4808,7.9784 12.7512,7.2488 C12.0216,6.5192 11.4464,5.734 11.026,4.8928 C10.6056,4.0516 10.3396,3.2208 10.228,2.4 C11.1704,2.4304 12.0848,2.628 12.9716,2.9928 C13.8584,3.3576 14.6612,3.8996 15.3808,4.6192 C16.1004,5.3388 16.6448,6.1416 17.0148,7.0284 C17.3810209,7.89788318 17.5795736,8.82876008 17.6,9.772 Z M9.3008,2.4304 C9.4124,3.3728 9.6984,4.3176 10.1596,5.2652 C10.6208,6.2128 11.2616,7.0968 12.0824,7.9176 C12.9032,8.7384 13.7872,9.3816 14.7348,9.848 C15.6824,10.314 16.6268,10.6028 17.5696,10.7144 C17.4890138,11.5738193 17.2655433,12.4137601 16.9084,13.1996 C16.5484,13.9952 16.0396,14.722 15.3808,15.3808 C14.722,16.0396 13.9952,16.5488 13.1996,16.9084 C12.404,17.2684 11.5756,17.4884 10.7144,17.5696 C10.6028,16.6272 10.3144,15.6824 9.848,14.7348 C9.382,13.7872 8.7384,12.9028 7.9176,12.0828 C7.0968,11.2616 6.2128,10.6208 5.2652,10.1596 C4.3176,9.6984 3.3728,9.4124 2.4304,9.3008 C2.5116,8.4396 2.7344,7.6088 3.0992,6.808 C3.464,6.0076 3.9708,5.278 4.6192,4.6192 C5.278,3.9708 6.0072,3.464 6.808,3.0992 C7.59550095,2.73791969 8.43821603,2.5118254 9.3008,2.4304 L9.3008,2.4304 Z M2.4,10.228 C3.2208,10.3396 4.052,10.6056 4.8928,11.026 C5.734,11.4464 6.5192,12.022 7.2488,12.7512 C7.9784,13.4808 8.556,14.266 8.9816,15.1072 C9.4072,15.9484 9.6708,16.7792 9.772,17.6 C8.82862614,17.5796143 7.89761066,17.381061 7.028,17.0148 C6.1416,16.6448 5.3388,16.1004 4.6192,15.3808 C3.8996,14.6612 3.3576,13.8584 2.9928,12.9716 C2.63130884,12.100316 2.43047289,11.170806 2.4,10.228 L2.4,10.228 Z" id="形状"></path>
            </g>
        </g>
    </g>
</svg>