<?xml version="1.0" encoding="UTF-8"?>
<svg width="18px" height="18px" viewBox="0 0 18 18" version="1.1" xmlns="http://www.w3.org/2000/svg" xmlns:xlink="http://www.w3.org/1999/xlink">
    <title>保险</title>
    <g id="页面-1" stroke="none" stroke-width="1">
        <g id="知识工具库-健康指导" transform="translate(-146.000000, -404.000000)">
            <g id="保险" transform="translate(146.000000, 404.000000)">
                <rect id="矩形" opacity="0" x="0" y="0" width="18" height="18"></rect>
                <path d="M8.94527211,4.63385624 C6.25537586,4.63385624 4.05893904,6.85094305 4.05026893,9.57672497 C4.05455003,9.83103655 4.25675094,10.030935 4.50239238,10.030935 C4.72952438,10.030935 4.921832,9.86143595 4.94899358,9.63648046 C4.97622712,9.41366552 5.16643015,9.24636096 5.39136765,9.24636096 C5.61531581,9.24636096 5.80542891,9.41368351 5.83264447,9.63648046 C5.86084934,9.86143593 6.05326489,10.030935 6.28039689,10.030935 C6.49997402,10.030935 6.68690329,9.87555637 6.72491152,9.66036827 C6.76297371,9.44741065 6.94770847,9.29302133 7.16295053,9.29302133 C7.37808467,9.29302133 7.56287339,9.44741065 7.60088162,9.66036827 C7.63890783,9.87555637 7.8258371,10.030935 8.04539624,10.030935 C8.28988648,10.030935 8.49314867,9.83103655 8.49532519,9.58758961 C8.49971422,9.34414267 8.69743615,9.14848931 8.9409011,9.14848931 C9.18434804,9.14848931 9.38215992,9.34308137 9.38654895,9.58654631 C9.38654895,9.59197862 9.38654895,9.59625972 9.38654895,9.60063077 L9.38761022,9.60063077 C9.38761022,9.60277131 9.38761022,9.60494783 9.38654895,9.60600913 C9.40176663,9.8418832 9.59950656,10.030953 9.8386724,10.030953 C10.0625306,10.030953 10.2538489,9.86363047 10.2842483,9.64193078 C10.3146297,9.41807255 10.5178919,9.24637897 10.7320007,9.25612836 C10.9558769,9.25936617 11.1439214,9.42888324 11.1689065,9.65173414 C11.1939275,9.8799634 11.3863251,10.051639 11.6166589,10.051639 C11.8373153,10.051639 12.0285617,9.88861553 12.0623068,9.67126888 C12.0970952,9.45388628 12.2829632,9.29411859 12.5024324,9.29411859 C12.7219555,9.29411859 12.9089388,9.45388628 12.9426299,9.67126888 C12.976357,9.88755425 13.1676034,10.051639 13.3882058,10.051639 C13.6371031,10.051639 13.83925,9.84945607 13.83925,9.60063079 C13.83925,9.58102407 13.8381527,9.56147133 13.8360122,9.54082134 C13.7750875,6.81183758 11.5829857,4.63385624 8.94527211,4.63385624 Z M8.94527211,0.0235640215 C4.02853966,0.0235640215 0.0420644883,4.01003919 0.0420644883,8.92678964 C0.0420644883,13.8435401 4.02853966,17.8300153 8.94527211,17.8300153 C13.8620226,17.8300153 17.8484977,13.8435401 17.8484977,8.92678964 C17.8484977,4.01003919 13.8620226,0.0235640215 8.94527211,0.0235640215 Z M13.3881878,10.9417295 C13.0490997,10.9417295 12.7383064,10.8178115 12.5024144,10.6113295 C12.0231113,11.0298338 11.1884952,11.022117 10.7146065,10.5939713 C10.3624952,10.898271 9.83106355,10.9711216 9.38654893,10.8254384 L9.38761021,13.5327108 C9.38761021,14.5108516 8.59093035,15.3075315 7.61174624,15.3075315 C6.63252615,15.3075315 5.83697953,14.5108516 5.83697953,13.5327108 L6.72600876,13.5327108 C6.72600876,14.0207739 7.12380906,14.417369 7.61174624,14.417369 C8.09973738,14.417369 8.49640444,14.0207739 8.49640444,13.5327108 L8.49534316,10.8243951 C8.04865201,10.9711216 7.5128313,10.8971917 7.16295052,10.5917948 C6.68690327,11.0080326 5.86523837,11.0026182 5.39136765,10.5841679 C5.15225577,10.7939417 4.84038322,10.9210975 4.50239237,10.9210975 C3.77203354,10.9210975 3.17104302,10.3276798 3.16123966,9.59951552 C3.16989179,6.51404946 5.525053,3.99912059 8.49532516,3.76657425 L8.49532516,2.9905444 L9.3853797,2.9905444 L9.3853797,3.76657425 C12.3035232,3.99584681 14.6575512,6.46294611 14.7206344,9.47020119 C14.7249875,9.47665881 14.7292686,9.53756552 14.7292686,9.60061277 C14.7292686,10.3396597 14.1272168,10.9417295 13.3881878,10.9417295 Z" id="形状"></path>
            </g>
        </g>
    </g>
</svg>