<?xml version="1.0" encoding="UTF-8"?>
<svg width="20px" height="20px" viewBox="0 0 20 20" version="1.1" xmlns="http://www.w3.org/2000/svg" xmlns:xlink="http://www.w3.org/1999/xlink">
    <title>指导</title>
    <g id="页面-1" stroke="none" stroke-width="1">
        <g id="知识工具库-健康保险" transform="translate(-145.000000, -364.000000)">
            <g id="指导" transform="translate(145.000000, 364.000000)">
                <rect id="矩形" opacity="0" x="0" y="0" width="20" height="20"></rect>
                <path d="M17.5382812,14.8964844 L17.5382812,15.1132812 C17.5507813,15.078125 17.5632813,15.0410156 17.5632813,15.0039062 C17.5632813,14.96875 17.5632813,14.9316406 17.5382812,14.8964844 Z M16.671875,3.984375 C16.5195313,3.97265625 16.3710938,4.02929688 16.2636719,4.13671875 C16.15625,4.24414062 16.0996094,4.39257812 16.1113281,4.54492188 L16.1113281,15.7636719 C16.0722656,16.3632812 15.5976563,16.8417969 15,16.8847656 L5.21679688,16.8847656 C4.546875,16.8847656 3.76953125,16.3242187 3.76953125,15.7636719 L3.76953125,14.5078125 C3.76953125,13.9472656 4.43945313,13.6035156 5.10742188,13.6035156 L14.4472656,13.6035156 C14.5996094,13.6152344 14.7480469,13.5585938 14.8554688,13.4511719 C14.9628906,13.34375 15.0195312,13.1953125 15.0078125,13.0429688 L15.0078125,3.87695312 C15.0195312,3.30078125 14.78125,2.74804687 14.3554688,2.359375 C13.9296875,1.97070312 13.3554688,1.78710937 12.7832031,1.8515625 L5.21679688,1.8515625 C3.98632813,1.8515625 2.76757813,2.52929687 2.76757813,3.87695312 L2.76757813,16.2167969 C2.97070313,17.2519531 3.83203125,18.0273437 4.8828125,18.125003 L15.0078125,18.125003 C16.2011719,18.1269531 17.1835938,17.1835937 17.2324219,15.9921875 L17.2324219,4.56445312 C17.2148438,4.26171875 16.9746094,4.02148437 16.671875,4.00390625 L16.671875,3.984375 Z M14.5195312,14.7519531 L5.48046875,14.7519531 C5.171875,14.7519531 4.91992188,15.0039062 4.91992188,15.3125 C4.91992188,15.6230469 5.171875,15.8730469 5.48046875,15.8730469 L14.5214844,15.8730469 C14.8300781,15.8730469 15.0820312,15.6210938 15.0820312,15.3125 C15.0800781,15.0039062 14.8300781,14.7519531 14.5195313,14.7519531 L14.5195312,14.7519531 Z" id="形状"></path>
            </g>
        </g>
    </g>
</svg>