<?xml version="1.0" encoding="UTF-8"?>
<svg width="18px" height="18px" viewBox="0 0 18 18" version="1.1" xmlns="http://www.w3.org/2000/svg" xmlns:xlink="http://www.w3.org/1999/xlink">
    <title>导航栏图标_评估</title>
    <g id="页面-1" stroke="none" stroke-width="1">
        <g id="自定义案例-健康评估-危险因素" transform="translate(-146.000000, -124.000000)">
            <g id="导航栏图标_评估" transform="translate(146.000000, 124.000000)">
                <rect id="矩形" opacity="0" x="0" y="0" width="18" height="18"></rect>
                <path d="M9.3375,6.6375 C9.3375,6.525 9.3375,6.525 9.3375,6.6375 C10.125,5.7375 10.125,4.5 9.3375,3.7125 C8.55,2.925 7.425,2.925 6.6375,3.7125 C5.85,4.5 5.85,5.7375 6.525,6.525 C7.3125,7.3125 8.55,7.3125 9.3375,6.6375 Z M16.5375,0 L5.2875,0 L1.4625,0 C0.675,0 0,0.5625 0,1.35 L0,16.65 C0,17.4375 0.675,18 1.4625,18 L16.5375,18 C17.325,18 18,17.4375 18,16.65 L18,1.35 C18,0.5625 17.325,0 16.5375,0 Z M3.825,8.55 L5.625,6.75 C4.8375,5.625 4.95,4.05 5.9625,3.15 C6.975,2.025 8.775,2.025 9.9,3.0375 L10.0125,3.15 C11.1375,4.275 11.1375,6.1875 10.0125,7.3125 C9,8.2125 7.5375,8.325 6.4125,7.65 L4.6125,9.45 C4.3875,9.675 4.05,9.675 3.825,9.45 L3.825,9.3375 C3.6,9.1125 3.6,8.775 3.825,8.55 L3.825,8.55 Z M9.45,15.6375 L4.275,15.6375 C3.9375,15.6375 3.6,15.3 3.6,14.9625 C3.6,14.625 3.9375,14.2875 4.275,14.2875 L9.45,14.2875 C9.7875,14.2875 10.125,14.625 10.125,14.9625 C10.125,15.3 9.9,15.6375 9.45,15.6375 L9.45,15.6375 Z M13.725,13.05 L4.275,13.05 C3.9375,13.05 3.6,12.7125 3.6,12.375 C3.6,12.0375 3.9375,11.7 4.275,11.7 L13.6125,11.7 C13.95,11.7 14.2875,12.0375 14.2875,12.375 C14.4,12.7125 14.0625,13.05 13.725,13.05 Z" id="形状"></path>
            </g>
        </g>
    </g>
</svg>