<?xml version="1.0" encoding="UTF-8"?>
<svg width="18px" height="15px" viewBox="0 0 18 15" version="1.1" xmlns="http://www.w3.org/2000/svg" xmlns:xlink="http://www.w3.org/1999/xlink">
    <title>素材库</title>
    <g id="页面-1" stroke="none" stroke-width="1">
        <g id="知识工具库-素材库" transform="translate(-146.000000, -446.000000)">
            <g id="素材库" transform="translate(146.000000, 446.000000)">
                <rect id="矩形" opacity="0" x="0" y="0" width="14.479183" height="14.479183"></rect>
                <path d="M17.1578319,4.49759623 L0.837077769,4.49759623 C0.0090494894,4.49759623 -0.0325781618,4.90120346 0.0117643362,5.39440063 L0.753822467,13.4991233 C0.799069914,13.9923205 0.916713276,14.3950228 1.74383661,14.3950228 L16.2501681,14.3950228 C17.0944855,14.3950228 17.1949348,13.9923205 17.2392773,13.4991233 L17.9813354,5.39440063 C18.0265829,4.90120346 17.9858602,4.49850118 17.1578319,4.49850118 L17.1578319,4.49759623 Z M16.5587557,2.51937785 C16.4592113,2.12301021 15.9696339,1.79903849 15.4710071,1.79903849 L9.33907306,1.79903849 C8.84044619,1.79903849 8.14273056,1.51397958 7.78980047,1.16466929 L7.25497565,0.635274156 C6.90204556,0.285963865 6.20523488,0 5.70570306,0 L2.77638335,0 C2.27866143,0 1.82437706,0.402702278 1.77008013,0.894089552 L1.50764493,3.23881225 L16.7397455,3.23881225 L16.5587557,2.51937785 Z" id="形状"></path>
            </g>
        </g>
    </g>
</svg>