<?xml version="1.0" encoding="UTF-8"?>
<svg width="18px" height="18px" viewBox="0 0 18 18" version="1.1" xmlns="http://www.w3.org/2000/svg" xmlns:xlink="http://www.w3.org/1999/xlink">
    <title>表格</title>
    <g id="页面-1" stroke="none" stroke-width="1">
        <g id="知识工具库-监测随访" transform="translate(-78.000000, -248.000000)">
            <g id="表格" transform="translate(78.000000, 248.000000)">
                <rect id="矩形" opacity="0" x="0" y="0" width="18" height="18"></rect>
                <polygon id="路径" points="1.58422852 1.58422852 16.4157715 1.58422852 16.4157715 5.82180601 1.58422852 5.82180601"></polygon>
                <path d="M1.58422852,6.88120401 L5.82180601,6.88120401 L5.82180601,11.118796 L1.58422852,11.118796 L1.58422852,6.88120401 Z M1.58422852,12.178194 L5.82180601,12.178194 L5.82180601,16.4157715 L1.58422852,16.4157715 L1.58422852,12.178194 Z M6.88120401,6.88120401 L11.118796,6.88120401 L11.118796,11.118796 L6.88120401,11.118796 L6.88120401,6.88120401 Z M6.88120401,12.178194 L11.118796,12.178194 L11.118796,16.4157715 L6.88120401,16.4157715 L6.88120401,12.178194 Z M12.178194,6.88120401 L16.4157715,6.88120401 L16.4157715,11.118796 L12.178194,11.118796 L12.178194,6.88120401 Z" id="形状"></path>
                <polygon id="路径" points="12.178194 12.178194 16.4157715 12.178194 16.4157715 16.4157715 12.178194 16.4157715"></polygon>
            </g>
        </g>
    </g>
</svg>