<?xml version="1.0" encoding="UTF-8"?>
<svg width="20px" height="20px" viewBox="0 0 20 20" version="1.1" xmlns="http://www.w3.org/2000/svg" xmlns:xlink="http://www.w3.org/1999/xlink">
    <title>体检记录</title>
    <g id="页面-1" stroke="none" stroke-width="1">
        <g id="知识工具库-健康体检" transform="translate(-145.000000, -324.000000)">
            <g id="体检记录" transform="translate(145.000000, 324.000000)">
                <rect id="矩形" opacity="0" x="0" y="0" width="20" height="20"></rect>
                <path d="M13.5,13.4960937 C13.2578125,13.4960937 13.0625,13.6933594 13.0625,13.9355469 C13.0625,14.1777344 13.2578125,14.375 13.5,14.375 C13.7421875,14.375 13.9375,14.1777344 13.9375,13.9355469 C13.9375,13.6933594 13.7402344,13.4960937 13.5,13.4960937 Z M10,1.24609375 C5.16796875,1.24609375 1.25,5.1640625 1.25,9.99609375 C1.25,14.828125 5.16796875,18.7460938 10,18.7460938 C14.8320312,18.7460938 18.75,14.828125 18.75,9.99609375 C18.75,5.1640625 14.8320312,1.24609375 10,1.24609375 Z M13.5,15.2519531 C12.7753906,15.2519531 12.1875,14.6621094 12.1875,13.9355469 C12.1875,13.3632812 12.5546875,12.8808594 13.0644531,12.6992188 L13.0644531,7.80078125 C13.0644531,6.59375 12.0878906,5.61523437 10.8828125,5.61523437 C9.81640625,5.61523437 8.93359375,6.38085937 8.74414062,7.39453125 C10.4414062,7.61914062 11.75,8.9765625 11.75,10.6230469 L11.75,11.8457031 C11.7421875,12.8417969 11.2480469,13.7617188 10.4375,14.3710938 L10.4375,14.3769531 C10.4375,14.8613281 10.0449219,15.2539063 9.5625,15.2539063 C9.08007812,15.2539063 8.6875,14.8613281 8.6875,14.3769531 C8.6875,13.8925781 9.08007812,13.5 9.5625,13.5 C9.70703125,13.5 9.83984375,13.5390625 9.9609375,13.5996094 C10.4863281,13.15625 10.8046875,12.5273438 10.8125,11.8457031 L10.8125,10.6230469 C10.8125,9.34570313 9.73828125,8.3046875 8.38671875,8.23828125 L8.11328125,8.23828125 C6.76171875,8.3046875 5.6875,9.34570313 5.6875,10.6230469 L5.6875,11.8457031 C5.69335937,12.5273438 6.01171875,13.1582031 6.53710937,13.6015625 C6.65820312,13.5390625 6.79296875,13.5 6.9375,13.5 C7.41992187,13.5 7.8125,13.8925781 7.8125,14.3769531 C7.8125,14.8613281 7.41992187,15.2539063 6.9375,15.2539063 C6.45507812,15.2539063 6.0625,14.8613281 6.0625,14.3769531 L6.0625,14.3691406 C5.25195312,13.7597656 4.75585937,12.8417969 4.75,11.8457031 L4.75,10.6230469 C4.75,8.94140625 6.11328125,7.55859375 7.86328125,7.37890625 C8.06835937,5.88867188 9.34179687,4.74023438 10.8847656,4.74023438 C12.5703125,4.74023438 13.9375,6.11132813 13.9375,7.80078125 L13.9375,12.6992188 C14.4453125,12.8808594 14.8125,13.3632813 14.8125,13.9355469 C14.8125,14.6621094 14.2246094,15.2519531 13.5,15.2519531 L13.5,15.2519531 Z" id="形状"></path>
            </g>
        </g>
    </g>
</svg>