<?xml version="1.0" encoding="UTF-8"?>
<svg width="18px" height="18px" viewBox="0 0 18 18" version="1.1" xmlns="http://www.w3.org/2000/svg" xmlns:xlink="http://www.w3.org/1999/xlink">
    <title>S_产后心理自测</title>
    <g id="页面-1" stroke="none" stroke-width="1" fill-rule="evenodd">
        <g id="知识工具库-心理干预" transform="translate(-145.000000, -244.000000)" fill-rule="nonzero">
            <g id="S_产后心理自测" transform="translate(145.000000, 244.000000)">
                <rect id="矩形" fill="#000000" opacity="0" x="0" y="0" width="18" height="18"></rect>
                <polygon id="路径" fill-opacity="0" fill="#FFFFFF" points="0 0 18 0 18 18 0 18"></polygon>
                <path d="M1,9 C1,11.8581247 2.52479134,14.4991409 5,15.9282033 C7.4752086,17.3572657 10.5247914,17.3572657 13,15.9282033 C15.4752087,14.4991409 17,11.8581247 17,9 C17,4.581722 13.418278,1 9,1 C4.581722,1 1,4.581722 1,9 Z" id="路径"></path>
                <path d="M11,13.1745 C10.8195,13.213 10.622,13.2505 10.4075,13.2865 C10.1645,13.328 9.92,13.364 9.674,13.3955 C9.43858857,13.4260449 9.20253096,13.4513844 8.966,13.4715 C8.76947646,13.4891336 8.57230838,13.4986417 8.37499999,13.5 C8.126,13.5 7.828,13.481 7.48049999,13.443 C7.13299999,13.405 6.79549999,13.358 6.4685,13.301 C6.1415,13.244 5.8535,13.186 5.6045,13.1255 C5.35550001,13.0655 5.2045,13.0135 5.1525,12.969 C5.095,12.9185 5.05,12.765 5.01799999,12.509 C4.98649999,12.253 4.99649999,11.923 5.04850001,11.5185 C5.08350001,11.2845 5.1715,11.1075 5.3135,10.9875 C5.45549999,10.8675 5.6185,10.771 5.804,10.6985 C5.994,10.6245 6.1865,10.561 6.382,10.5085 C6.58200001,10.455 6.757,10.3745 6.90700001,10.267 C7.01700001,10.191 7.10250001,10.12 7.16350001,10.0535 C7.2245,9.98749999 7.27050001,9.92099999 7.3025,9.85450001 C7.334,9.7895 7.353,9.71900002 7.35899999,9.646 C7.36499999,9.56849999 7.36499999,9.49099999 7.35899999,9.41350001 L6.61199999,9.2905 C6.50749999,9.21449999 6.415,9.09749999 6.334,8.9395 C6.26449999,8.80699999 6.201,8.62499999 6.14299999,8.3945 C6.08499998,8.16350001 6.056,7.865 6.056,7.49849999 C6.056,7.19499999 6.07099999,6.87099999 6.0995,6.52649999 C6.12850001,6.18249999 6.19950001,5.8535 6.3125,5.5405 C6.42435375,5.22948813 6.59532942,4.94305719 6.81600001,4.697 C7.039,4.447 7.3415,4.26199999 7.724,4.142 C7.9348083,4.06162648 8.15839166,4.01995867 8.38399999,4.01899999 C8.50522355,4.00594502 8.62707616,3.99960201 8.749,3.99998238 C9.0325,3.99998238 9.28750001,4.06300001 9.513,4.18999999 C9.73650001,4.31399999 9.937,4.48299998 10.104,4.68750001 C10.2749713,4.89807381 10.4165953,5.13086182 10.525,5.3795 C10.7410323,5.86741074 10.8816385,6.38532709 10.942,6.9155 C10.968,7.15899999 10.9755,7.3655 10.964,7.5365 C10.9561503,7.77699873 10.9195569,8.01569478 10.855,8.2475 C10.8030221,8.43085907 10.7407568,8.61114465 10.6685,8.7875 C10.6035,8.9425 10.526,9.091 10.437,9.2305 C10.4074802,9.22677841 10.3777534,9.22494136 10.348,9.225 C10.085,9.225 9.8395,9.286 9.63300001,9.40000001 L9.55650001,9.41350001 C9.55578236,9.42482269 9.55528226,9.43615811 9.55499999,9.4475 C9.23349999,9.65750001 9.025,10.0105 9.025,10.474 C9.025,10.634 9.0515,10.8665 9.10300001,11.0215 C9.16299466,11.2034661 9.25850632,11.3717162 9.38399999,11.5165 L11,13.174 L11,13.1745 Z" id="路径" fill="#FFFFFF"></path>
                <path d="M12.0065,13 L10.314,11.376 C10.2051662,11.2592437 10.1214405,11.1214026 10.068,10.971 C10.0231299,10.8257194 10.0002104,10.6745518 10,10.5225 C10,9.882 10.52,9.49999999 11.158,9.49999999 C11.48,9.49999999 11.783,9.745 12,9.9755 C12.217,9.745 12.52,9.49999999 12.842,9.49999999 C13.48,9.49999999 14,9.882 14,10.5225 C14,10.6515 13.978,10.8395 13.9345,10.9645 C13.8832856,11.1117451 13.8028421,11.2471215 13.698,11.3625 L13.689,11.372 L12.0065,13 Z" id="路径"></path>
            </g>
        </g>
    </g>
</svg>